<?xml version="1.0" standalone="no"?>
<!DOCTYPE svg PUBLIC "-//W3C//DTD SVG 20010904//EN"
 "http://www.w3.org/TR/2001/REC-SVG-20010904/DTD/svg10.dtd">
<svg version="1.0" xmlns="http://www.w3.org/2000/svg"
 width="124.000000pt" height="32.000000pt" viewBox="0 0 124.000000 32.000000"
 preserveAspectRatio="xMidYMid meet">
<metadata>
Created by potrace 1.16, written by Peter Selinger 2001-2019
</metadata>
<g transform="translate(0.000000,32.000000) scale(0.015500,-0.007111)"
fill="#000000" stroke="none">
<path d="M3140 3410 c-163 -33 -339 -107 -432 -181 -20 -16 -40 -29 -44 -29
-4 0 -48 -42 -98 -92 -90 -91 -166 -185 -166 -206 0 -6 -4 -12 -8 -14 -12 -5
-66 -114 -95 -193 -66 -181 -87 -418 -51 -593 27 -132 91 -301 147 -386 101
-155 247 -298 403 -398 79 -51 230 -116 294 -129 73 -13 240 -18 240 -6 0 4
-12 7 -27 7 -111 1 -347 125 -474 250 -73 72 -139 150 -139 165 0 3 -13 26
-30 50 -16 24 -30 46 -30 49 0 3 -16 38 -35 77 -66 135 -103 370 -86 539 21
205 74 358 169 489 133 183 356 322 582 361 36 6 89 15 119 20 70 13 256 13
318 0 26 -5 89 -16 138 -24 124 -21 237 -67 345 -140 l45 -30 -53 62 c-47 54
-73 79 -132 125 -95 75 -265 169 -330 182 -19 4 -39 11 -45 15 -5 5 -59 18
-120 29 -134 25 -285 26 -405 1z"/>
<path d="M4480 2755 c0 -294 -1 -305 -19 -305 -11 0 -21 5 -23 11 -2 7 -18 12
-35 13 -17 0 -29 4 -27 8 8 13 -70 23 -171 22 -100 -1 -215 -25 -215 -44 0 -6
-7 -10 -15 -10 -24 0 -89 -45 -140 -95 -47 -48 -95 -130 -95 -165 0 -12 -4
-18 -10 -15 -14 8 -25 -40 -25 -112 0 -33 -4 -59 -9 -56 -10 6 0 -99 15 -169
6 -27 15 -48 20 -48 5 0 9 -6 9 -13 0 -15 37 -88 52 -102 8 -7 8 -5 3 5 -5 9
-4 12 1 7 5 -5 9 -13 9 -18 0 -16 89 -111 119 -126 17 -9 36 -22 43 -29 29
-28 171 -64 255 -64 88 0 228 32 254 57 7 8 14 11 14 6 0 -4 4 -3 8 2 4 6 19
16 33 24 23 11 65 49 112 101 37 41 76 105 83 133 3 18 10 34 15 38 24 14 29
144 29 680 l0 569 -145 0 -145 0 0 -305z m-162 -539 c58 -21 110 -71 129 -127
10 -26 21 -45 25 -43 4 3 8 -27 8 -66 0 -39 -4 -69 -9 -66 -5 3 -11 -7 -14
-22 -8 -38 -64 -105 -110 -132 -96 -55 -231 -30 -297 56 -19 24 -42 52 -50 61
-17 19 -21 190 -4 201 6 4 19 22 28 40 9 18 31 42 49 52 18 11 28 20 22 21 -5
0 10 9 35 19 54 23 133 25 188 6z"/>
<path d="M3252 2933 c-46 -30 -92 -107 -92 -152 1 -35 33 -103 61 -130 83 -77
209 -65 272 26 23 33 27 50 27 104 0 57 -4 70 -30 106 -57 78 -159 97 -238 46z"/>
<path d="M5268 2525 c-66 -17 -138 -51 -138 -65 0 -6 -5 -10 -11 -10 -16 0
-68 -61 -75 -87 -3 -13 -10 -23 -15 -23 -14 0 -31 -80 -31 -150 -1 -69 19
-153 33 -144 5 3 9 -2 9 -10 0 -8 10 -22 23 -31 12 -8 20 -19 18 -23 -5 -10
99 -72 122 -72 9 0 17 -4 17 -9 0 -6 38 -21 83 -35 132 -40 161 -77 120 -147
-25 -41 -101 -56 -203 -39 -41 7 -77 16 -80 20 -10 15 -108 59 -115 52 -5 -4
-5 -2 -1 5 3 6 2 14 -2 17 -9 5 -22 -130 -22 -220 0 -41 2 -44 43 -63 101 -45
127 -52 217 -58 161 -9 285 28 365 110 67 67 89 125 87 223 -1 96 -30 164 -95
225 -27 26 -136 79 -160 79 -10 0 -16 4 -13 9 3 5 -15 14 -39 21 -25 7 -63 24
-85 39 -36 23 -40 29 -40 67 0 37 4 44 29 55 16 7 28 16 26 20 -7 10 93 17
152 12 29 -3 50 -9 47 -14 -3 -5 1 -9 10 -9 8 0 44 -16 80 -35 l67 -35 -3 142
-3 142 -85 23 c-111 29 -256 38 -332 18z"/>
<path d="M3200 1980 l0 -520 145 0 145 0 0 520 0 520 -145 0 -145 0 0 -520z"/>
</g>
</svg>
